<svg width="14" height="14" viewBox="0 0 14 14" fill="none" xmlns="http://www.w3.org/2000/svg">
<g clip-path="url(#clip0_444_3165)">
<mask id="path-1-inside-1_444_3165" fill="white">
<path d="M7 7.875H2.625C2.39294 7.875 2.17038 7.78281 2.00628 7.61872C1.84219 7.45462 1.75 7.23206 1.75 7V2.625C1.75 2.39294 1.84219 2.17038 2.00628 2.00628C2.17038 1.84219 2.39294 1.75 2.625 1.75H7C7.23206 1.75 7.45462 1.84219 7.61872 2.00628C7.78281 2.17038 7.875 2.39294 7.875 2.625V7C7.875 7.23206 7.78281 7.45462 7.61872 7.61872C7.45462 7.78281 7.23206 7.875 7 7.875ZM2.625 2.625V7H7V2.625H2.625Z"/>
</mask>
<path d="M7 7.875H2.625C2.39294 7.875 2.17038 7.78281 2.00628 7.61872C1.84219 7.45462 1.75 7.23206 1.75 7V2.625C1.75 2.39294 1.84219 2.17038 2.00628 2.00628C2.17038 1.84219 2.39294 1.75 2.625 1.75H7C7.23206 1.75 7.45462 1.84219 7.61872 2.00628C7.78281 2.17038 7.875 2.39294 7.875 2.625V7C7.875 7.23206 7.78281 7.45462 7.61872 7.61872C7.45462 7.78281 7.23206 7.875 7 7.875ZM2.625 2.625V7H7V2.625H2.625Z" fill="#979797"/>
<path d="M1.75 7H0.75H1.75ZM2.625 1.75V0.75V1.75ZM7 1.75V0.75V1.75ZM2.625 2.625V1.625H1.625V2.625H2.625ZM2.625 7H1.625V8H2.625V7ZM7 7V8H8V7H7ZM7 2.625H8V1.625H7V2.625ZM7 6.875H2.625V8.875H7V6.875ZM2.625 6.875C2.65815 6.875 2.68995 6.88817 2.71339 6.91161L1.29917 8.32583C1.65081 8.67746 2.12772 8.875 2.625 8.875V6.875ZM2.71339 6.91161C2.73683 6.93505 2.75 6.96685 2.75 7H0.75C0.75 7.49728 0.947544 7.97419 1.29917 8.32583L2.71339 6.91161ZM2.75 7V2.625H0.75V7H2.75ZM2.75 2.625C2.75 2.65815 2.73683 2.68995 2.71339 2.71339L1.29917 1.29917C0.947544 1.65081 0.75 2.12772 0.75 2.625H2.75ZM2.71339 2.71339C2.68995 2.73683 2.65815 2.75 2.625 2.75V0.75C2.12772 0.75 1.65081 0.947544 1.29917 1.29917L2.71339 2.71339ZM2.625 2.75H7V0.75H2.625V2.75ZM7 2.75C6.96685 2.75 6.93505 2.73683 6.91161 2.71339L8.32583 1.29917C7.97419 0.947544 7.49728 0.75 7 0.75V2.75ZM6.91161 2.71339C6.88817 2.68995 6.875 2.65815 6.875 2.625H8.875C8.875 2.12772 8.67746 1.65081 8.32583 1.29917L6.91161 2.71339ZM6.875 2.625V7H8.875V2.625H6.875ZM6.875 7C6.875 6.96685 6.88817 6.93505 6.91161 6.91161L8.32583 8.32583C8.67746 7.9742 8.875 7.49728 8.875 7H6.875ZM6.91161 6.91161C6.93505 6.88817 6.96685 6.875 7 6.875V8.875C7.49728 8.875 7.9742 8.67746 8.32583 8.32583L6.91161 6.91161ZM1.625 2.625V7H3.625V2.625H1.625ZM2.625 8H7V6H2.625V8ZM8 7V2.625H6V7H8ZM7 1.625H2.625V3.625H7V1.625Z" fill="#979797" mask="url(#path-1-inside-1_444_3165)"/>
<mask id="path-3-inside-2_444_3165" fill="white">
<path d="M11.375 5.25V7H9.625V5.25H11.375ZM11.375 4.375H9.625C9.39294 4.375 9.17038 4.46719 9.00628 4.63128C8.84219 4.79538 8.75 5.01794 8.75 5.25V7C8.75 7.23206 8.84219 7.45462 9.00628 7.61872C9.17038 7.78281 9.39294 7.875 9.625 7.875H11.375C11.6071 7.875 11.8296 7.78281 11.9937 7.61872C12.1578 7.45462 12.25 7.23206 12.25 7V5.25C12.25 5.01794 12.1578 4.79538 11.9937 4.63128C11.8296 4.46719 11.6071 4.375 11.375 4.375Z"/>
</mask>
<path d="M11.375 5.25V7H9.625V5.25H11.375ZM11.375 4.375H9.625C9.39294 4.375 9.17038 4.46719 9.00628 4.63128C8.84219 4.79538 8.75 5.01794 8.75 5.25V7C8.75 7.23206 8.84219 7.45462 9.00628 7.61872C9.17038 7.78281 9.39294 7.875 9.625 7.875H11.375C11.6071 7.875 11.8296 7.78281 11.9937 7.61872C12.1578 7.45462 12.25 7.23206 12.25 7V5.25C12.25 5.01794 12.1578 4.79538 11.9937 4.63128C11.8296 4.46719 11.6071 4.375 11.375 4.375Z" fill="#979797"/>
<path d="M11.375 5.25H12.375V4.25H11.375V5.25ZM11.375 7V8H12.375V7H11.375ZM9.625 7H8.625V8H9.625V7ZM9.625 5.25V4.25H8.625V5.25H9.625ZM10.375 5.25V7H12.375V5.25H10.375ZM11.375 6H9.625V8H11.375V6ZM10.625 7V5.25H8.625V7H10.625ZM9.625 6.25H11.375V4.25H9.625V6.25ZM11.375 3.375H9.625V5.375H11.375V3.375ZM9.625 3.375C9.12772 3.375 8.65081 3.57254 8.29917 3.92417L9.71339 5.33839C9.68995 5.36183 9.65815 5.375 9.625 5.375V3.375ZM8.29917 3.92417C7.94754 4.27581 7.75 4.75272 7.75 5.25H9.75C9.75 5.28315 9.73683 5.31495 9.71339 5.33839L8.29917 3.92417ZM7.75 5.25V7H9.75V5.25H7.75ZM7.75 7C7.75 7.49728 7.94754 7.97419 8.29917 8.32582L9.71339 6.91161C9.73683 6.93505 9.75 6.96685 9.75 7H7.75ZM8.29917 8.32582C8.65081 8.67746 9.12772 8.875 9.625 8.875V6.875C9.65815 6.875 9.68995 6.88817 9.71339 6.91161L8.29917 8.32582ZM9.625 8.875H11.375V6.875H9.625V8.875ZM11.375 8.875C11.8723 8.875 12.3492 8.67746 12.7008 8.32582L11.2866 6.91161C11.3101 6.88817 11.3418 6.875 11.375 6.875V8.875ZM12.7008 8.32582C13.0525 7.97419 13.25 7.49728 13.25 7H11.25C11.25 6.96685 11.2632 6.93505 11.2866 6.91161L12.7008 8.32582ZM13.25 7V5.25H11.25V7H13.25ZM13.25 5.25C13.25 4.75272 13.0525 4.27581 12.7008 3.92417L11.2866 5.33839C11.2632 5.31495 11.25 5.28315 11.25 5.25H13.25ZM12.7008 3.92417C12.3492 3.57254 11.8723 3.375 11.375 3.375V5.375C11.3418 5.375 11.3101 5.36183 11.2866 5.33839L12.7008 3.92417Z" fill="#979797" mask="url(#path-3-inside-2_444_3165)"/>
<mask id="path-5-inside-3_444_3165" fill="white">
<path d="M11.375 9.625V11.375H9.625V9.625H11.375ZM11.375 8.75H9.625C9.39294 8.75 9.17038 8.84219 9.00628 9.00628C8.84219 9.17038 8.75 9.39294 8.75 9.625V11.375C8.75 11.6071 8.84219 11.8296 9.00628 11.9937C9.17038 12.1578 9.39294 12.25 9.625 12.25H11.375C11.6071 12.25 11.8296 12.1578 11.9937 11.9937C12.1578 11.8296 12.25 11.6071 12.25 11.375V9.625C12.25 9.39294 12.1578 9.17038 11.9937 9.00628C11.8296 8.84219 11.6071 8.75 11.375 8.75Z"/>
</mask>
<path d="M11.375 9.625V11.375H9.625V9.625H11.375ZM11.375 8.75H9.625C9.39294 8.75 9.17038 8.84219 9.00628 9.00628C8.84219 9.17038 8.75 9.39294 8.75 9.625V11.375C8.75 11.6071 8.84219 11.8296 9.00628 11.9937C9.17038 12.1578 9.39294 12.25 9.625 12.25H11.375C11.6071 12.25 11.8296 12.1578 11.9937 11.9937C12.1578 11.8296 12.25 11.6071 12.25 11.375V9.625C12.25 9.39294 12.1578 9.17038 11.9937 9.00628C11.8296 8.84219 11.6071 8.75 11.375 8.75Z" fill="#979797"/>
<path d="M11.375 9.625H12.375V8.625H11.375V9.625ZM11.375 11.375V12.375H12.375V11.375H11.375ZM9.625 11.375H8.625V12.375H9.625V11.375ZM9.625 9.625V8.625H8.625V9.625H9.625ZM10.375 9.625V11.375H12.375V9.625H10.375ZM11.375 10.375H9.625V12.375H11.375V10.375ZM10.625 11.375V9.625H8.625V11.375H10.625ZM9.625 10.625H11.375V8.625H9.625V10.625ZM11.375 7.75H9.625V9.75H11.375V7.75ZM9.625 7.75C9.12772 7.75 8.65081 7.94754 8.29917 8.29917L9.71339 9.71339C9.68995 9.73683 9.65815 9.75 9.625 9.75V7.75ZM8.29917 8.29917C7.94754 8.65081 7.75 9.12772 7.75 9.625H9.75C9.75 9.65815 9.73683 9.68995 9.71339 9.71339L8.29917 8.29917ZM7.75 9.625V11.375H9.75V9.625H7.75ZM7.75 11.375C7.75 11.8723 7.94754 12.3492 8.29917 12.7008L9.71339 11.2866C9.73683 11.3101 9.75 11.3418 9.75 11.375H7.75ZM8.29917 12.7008C8.65081 13.0525 9.12772 13.25 9.625 13.25V11.25C9.65815 11.25 9.68995 11.2632 9.71339 11.2866L8.29917 12.7008ZM9.625 13.25H11.375V11.25H9.625V13.25ZM11.375 13.25C11.8723 13.25 12.3492 13.0525 12.7008 12.7008L11.2866 11.2866C11.3101 11.2632 11.3418 11.25 11.375 11.25V13.25ZM12.7008 12.7008C13.0525 12.3492 13.25 11.8723 13.25 11.375H11.25C11.25 11.3418 11.2632 11.3101 11.2866 11.2866L12.7008 12.7008ZM13.25 11.375V9.625H11.25V11.375H13.25ZM13.25 9.625C13.25 9.12772 13.0525 8.65081 12.7008 8.29917L11.2866 9.71339C11.2632 9.68995 11.25 9.65815 11.25 9.625H13.25ZM12.7008 8.29917C12.3492 7.94754 11.8723 7.75 11.375 7.75V9.75C11.3418 9.75 11.3101 9.73683 11.2866 9.71339L12.7008 8.29917Z" fill="#979797" mask="url(#path-5-inside-3_444_3165)"/>
<mask id="path-7-inside-4_444_3165" fill="white">
<path d="M7 9.625V11.375H5.25V9.625H7ZM7 8.75H5.25C5.01794 8.75 4.79538 8.84219 4.63128 9.00628C4.46719 9.17038 4.375 9.39294 4.375 9.625V11.375C4.375 11.6071 4.46719 11.8296 4.63128 11.9937C4.79538 12.1578 5.01794 12.25 5.25 12.25H7C7.23206 12.25 7.45462 12.1578 7.61872 11.9937C7.78281 11.8296 7.875 11.6071 7.875 11.375V9.625C7.875 9.39294 7.78281 9.17038 7.61872 9.00628C7.45462 8.84219 7.23206 8.75 7 8.75Z"/>
</mask>
<path d="M7 9.625V11.375H5.25V9.625H7ZM7 8.75H5.25C5.01794 8.75 4.79538 8.84219 4.63128 9.00628C4.46719 9.17038 4.375 9.39294 4.375 9.625V11.375C4.375 11.6071 4.46719 11.8296 4.63128 11.9937C4.79538 12.1578 5.01794 12.25 5.25 12.25H7C7.23206 12.25 7.45462 12.1578 7.61872 11.9937C7.78281 11.8296 7.875 11.6071 7.875 11.375V9.625C7.875 9.39294 7.78281 9.17038 7.61872 9.00628C7.45462 8.84219 7.23206 8.75 7 8.75Z" fill="#979797"/>
<path d="M7 9.625H8V8.625H7V9.625ZM7 11.375V12.375H8V11.375H7ZM5.25 11.375H4.25V12.375H5.25V11.375ZM5.25 9.625V8.625H4.25V9.625H5.25ZM6 9.625V11.375H8V9.625H6ZM7 10.375H5.25V12.375H7V10.375ZM6.25 11.375V9.625H4.25V11.375H6.25ZM5.25 10.625H7V8.625H5.25V10.625ZM7 7.75H5.25V9.75H7V7.75ZM5.25 7.75C4.75272 7.75 4.27581 7.94754 3.92417 8.29917L5.33839 9.71339C5.31495 9.73683 5.28315 9.75 5.25 9.75V7.75ZM3.92417 8.29917C3.57254 8.65081 3.375 9.12772 3.375 9.625H5.375C5.375 9.65815 5.36183 9.68995 5.33839 9.71339L3.92417 8.29917ZM3.375 9.625V11.375H5.375V9.625H3.375ZM3.375 11.375C3.375 11.8723 3.57254 12.3492 3.92417 12.7008L5.33839 11.2866C5.36183 11.3101 5.375 11.3418 5.375 11.375H3.375ZM3.92417 12.7008C4.27581 13.0525 4.75272 13.25 5.25 13.25V11.25C5.28315 11.25 5.31495 11.2632 5.33839 11.2866L3.92417 12.7008ZM5.25 13.25H7V11.25H5.25V13.25ZM7 13.25C7.49728 13.25 7.97419 13.0525 8.32582 12.7008L6.91161 11.2866C6.93505 11.2632 6.96685 11.25 7 11.25V13.25ZM8.32582 12.7008C8.67746 12.3492 8.875 11.8723 8.875 11.375H6.875C6.875 11.3418 6.88817 11.3101 6.91161 11.2866L8.32582 12.7008ZM8.875 11.375V9.625H6.875V11.375H8.875ZM8.875 9.625C8.875 9.12772 8.67746 8.65081 8.32582 8.29917L6.91161 9.71339C6.88817 9.68995 6.875 9.65815 6.875 9.625H8.875ZM8.32582 8.29917C7.97419 7.94754 7.49728 7.75 7 7.75V9.75C6.96685 9.75 6.93505 9.73683 6.91161 9.71339L8.32582 8.29917Z" fill="#979797" mask="url(#path-7-inside-4_444_3165)"/>
</g>
<defs>
<clipPath id="clip0_444_3165">
<rect width="14" height="14" fill="white"/>
</clipPath>
</defs>
</svg>
