<svg width="8" height="8" viewBox="0 0 8 8" fill="none" xmlns="http://www.w3.org/2000/svg">
<path d="M4.57808 3.99948L7.50776 0.507289C7.55687 0.449254 7.51558 0.361084 7.43968 0.361084H6.54906C6.4966 0.361084 6.44638 0.384521 6.41178 0.4247L3.99549 3.30528L1.57919 0.4247C1.54571 0.384521 1.49549 0.361084 1.44191 0.361084H0.551289C0.475396 0.361084 0.434102 0.449254 0.483209 0.507289L3.4129 3.99948L0.483209 7.49167C0.472208 7.5046 0.465151 7.52042 0.462875 7.53725C0.460598 7.55408 0.463198 7.5712 0.470367 7.5866C0.477535 7.60199 0.48897 7.61501 0.503314 7.62409C0.517658 7.63318 0.534309 7.63796 0.551289 7.63787H1.44191C1.49437 7.63787 1.54459 7.61443 1.57919 7.57425L3.99549 4.69367L6.41178 7.57425C6.44526 7.61443 6.49549 7.63787 6.54906 7.63787H7.43968C7.51558 7.63787 7.55687 7.5497 7.50776 7.49167L4.57808 3.99948Z" fill="#525252"/>
</svg>
