<svg width="63" height="7" viewBox="0 0 63 7" fill="none" xmlns="http://www.w3.org/2000/svg">
<path d="M4.39294 2.25724L5.17429 1.47589C4.62734 0.668491 3.6984 0.147589 2.58715 0.147589C1.47589 0.147589 0.546947 0.668491 0 1.47589L0.781353 2.25724C1.11994 1.62348 1.77107 1.21544 2.58715 1.21544C3.40322 1.21544 4.05435 1.62348 4.39294 2.25724ZM2.19647 2.1357L1.44984 2.891L2.96914 4.4103L3.71577 3.65499L2.19647 2.1357ZM5.17429 5.07879L4.39294 4.29744C4.05435 4.92252 3.39454 5.33056 2.58715 5.33056C1.77107 5.33056 1.11994 4.92252 0.781353 4.28876L0 5.07011C0.546947 5.87751 1.47589 6.39841 2.58715 6.39841C3.6984 6.39841 4.61866 5.87751 5.17429 5.07879Z" fill="white"/>
<path d="M9.24282 0L8.50487 0.746626L9.7724 2.08361L8.50487 3.42059L9.24282 4.16721L11.1962 2.08361L9.24282 0ZM6.55149 6.31159H7.62802V0.234406H6.55149V6.31159Z" fill="white"/>
<path d="M16.1992 1.29357V0.234406H12.1102V1.29357H16.1992ZM13.2735 3.77654H16.1298V2.71737H13.2735V3.77654ZM16.2426 6.31159V5.25242H12.1102V6.31159H16.2426Z" fill="white"/>
<path d="M21.9768 2.26592L22.7581 1.47589C22.2112 0.668491 21.2822 0.147589 20.171 0.147589C19.0597 0.147589 18.1308 0.668491 17.5838 1.47589L18.3652 2.26592C18.7038 1.63216 19.3549 1.22412 20.171 1.22412C20.987 1.22412 21.6382 1.63216 21.9768 2.26592ZM22.7581 5.07879L21.9768 4.28876C21.6382 4.91384 20.9784 5.32188 20.171 5.32188C19.3549 5.32188 18.7038 4.91384 18.3652 4.28008L17.5838 5.07011C18.1308 5.87751 19.0597 6.39841 20.171 6.39841C21.2822 6.39841 22.2025 5.87751 22.7581 5.07879Z" fill="white"/>
<path d="M28.5022 1.29357V0.234406H23.7446V1.29357H28.5022ZM26.6617 2.59583H25.5852V6.31159H26.6617V2.59583Z" fill="white"/>
<path d="M33.0134 3.99358L34.6456 2.40483L32.3883 0L31.633 0.763989L33.1871 2.38747L31.5289 3.97622L34.0292 6.49391L34.7671 5.74728L33.0134 3.99358ZM29.697 6.31159H30.7736V0.234406H29.697V6.31159Z" fill="white"/>
<path d="M37.9703 1.51061L39.7588 3.34245L40.5141 2.58714L37.9703 0L35.4266 2.58714L36.1819 3.34245L37.9703 1.51061ZM35.6697 6.31159H40.271V5.25242H35.6697V6.31159Z" fill="white"/>
<path d="M47.4975 6.39841C49.312 6.39841 50.623 5.01802 50.623 3.273C50.623 1.52798 49.312 0.147589 47.4975 0.147589C45.6831 0.147589 44.3721 1.52798 44.3721 3.273C44.3721 5.01802 45.6831 6.39841 47.4975 6.39841ZM47.4975 5.33924C46.2821 5.33924 45.4487 4.45371 45.4487 3.273C45.4487 2.09229 46.2821 1.20676 47.4975 1.20676C48.713 1.20676 49.5464 2.09229 49.5464 3.273C49.5464 4.45371 48.713 5.33924 47.4975 5.33924Z" fill="white"/>
<path d="M52.961 0.234406H51.8845V6.31159H52.961V0.234406ZM57.3453 0.234406H56.2688V6.31159H57.3453V0.234406ZM54.2025 2.00547L53.4646 2.7521L55.0447 4.33217L55.7826 3.58554L54.2025 2.00547Z" fill="white"/>
<path d="M62.9566 1.29357V0.234406H58.8675V1.29357H62.9566ZM60.0309 3.77654H62.8871V2.71737H60.0309V3.77654ZM63 6.31159V5.25242H58.8675V6.31159H63Z" fill="white"/>
</svg>
