<svg width="18" height="18" viewBox="0 0 18 18" fill="none" xmlns="http://www.w3.org/2000/svg">
<g clip-path="url(#clip0_725_2024)">
<path d="M16.875 5.625V4.5H15.6931C15.6206 4.14791 15.4808 3.81312 15.2814 3.51399L16.1196 2.67587L15.3242 1.88049L14.4861 2.71862C14.1869 2.51922 13.8521 2.37941 13.5 2.30687V1.125H12.375V2.30687C12.0229 2.3794 11.6881 2.51919 11.389 2.71856L10.5509 1.88044L9.75549 2.67581L10.5936 3.51394C10.3942 3.81308 10.2544 4.14789 10.1819 4.5H9V5.625H10.1819C10.2544 5.97709 10.3942 6.31188 10.5936 6.61101L9.75544 7.44913L10.5508 8.24451L11.3889 7.40638C11.6881 7.60578 12.0229 7.74559 12.375 7.81813V9H13.5V7.81813C13.8521 7.7456 14.1869 7.60581 14.486 7.40644L15.3241 8.24456L16.1195 7.44919L15.2814 6.61106C15.4808 6.31192 15.6206 5.97711 15.6931 5.625H16.875ZM12.9375 6.75C12.6037 6.75 12.2775 6.65103 12 6.4656C11.7225 6.28018 11.5062 6.01663 11.3785 5.70828C11.2507 5.39993 11.2173 5.06063 11.2824 4.73329C11.3475 4.40594 11.5083 4.10526 11.7443 3.86926C11.9803 3.63326 12.2809 3.47254 12.6083 3.40742C12.9356 3.34231 13.2749 3.37573 13.5833 3.50345C13.8916 3.63118 14.1552 3.84747 14.3406 4.12498C14.526 4.40248 14.625 4.72874 14.625 5.0625C14.6245 5.5099 14.4466 5.93884 14.1302 6.2552C13.8138 6.57156 13.3849 6.74951 12.9375 6.75Z" fill="black"/>
<path d="M9 16.875H7.875V14.0625C7.87451 13.6151 7.69656 13.1862 7.3802 12.8698C7.06384 12.5534 6.6349 12.3755 6.1875 12.375H3.9375C3.4901 12.3755 3.06116 12.5534 2.7448 12.8698C2.42844 13.1862 2.25049 13.6151 2.25 14.0625V16.875H1.125V14.0625C1.12588 13.3168 1.42248 12.602 1.94973 12.0747C2.47699 11.5475 3.19185 11.2509 3.9375 11.25H6.1875C6.93315 11.2509 7.64801 11.5475 8.17527 12.0747C8.70252 12.602 8.99912 13.3168 9 14.0625V16.875Z" fill="black"/>
<path d="M5.0625 5.625C5.39626 5.625 5.72252 5.72397 6.00003 5.9094C6.27753 6.09482 6.49383 6.35837 6.62155 6.66672C6.74927 6.97507 6.78269 7.31437 6.71758 7.64171C6.65246 7.96906 6.49175 8.26974 6.25574 8.50574C6.01974 8.74174 5.71906 8.90246 5.39172 8.96758C5.06437 9.03269 4.72507 8.99927 4.41672 8.87155C4.10837 8.74382 3.84482 8.52753 3.6594 8.25002C3.47397 7.97252 3.375 7.64626 3.375 7.3125C3.375 6.86495 3.55279 6.43572 3.86926 6.11926C4.18573 5.80279 4.61495 5.625 5.0625 5.625ZM5.0625 4.5C4.50624 4.5 3.96247 4.66495 3.49996 4.97399C3.03745 5.28303 2.67696 5.72229 2.46409 6.2362C2.25122 6.75012 2.19552 7.31562 2.30404 7.86119C2.41256 8.40676 2.68043 8.9079 3.07376 9.30124C3.4671 9.69457 3.96824 9.96244 4.51381 10.071C5.05938 10.1795 5.62488 10.1238 6.1388 9.91091C6.65272 9.69804 7.09197 9.33755 7.40101 8.87504C7.71005 8.41253 7.875 7.86876 7.875 7.3125C7.875 6.94316 7.80225 6.57743 7.66091 6.2362C7.51957 5.89497 7.3124 5.58493 7.05124 5.32376C6.79007 5.0626 6.48003 4.85543 6.1388 4.71409C5.79757 4.57275 5.43184 4.5 5.0625 4.5Z" fill="black"/>
</g>
<defs>
<clipPath id="clip0_725_2024">
<rect width="18" height="18" fill="white"/>
</clipPath>
</defs>
</svg>
