<svg width="18" height="18" viewBox="0 0 18 18" fill="none" xmlns="http://www.w3.org/2000/svg">
<g clip-path="url(#clip0_725_2031)">
<path d="M9.00001 16.875L4.25504 11.2789C4.22809 11.2467 4.05917 11.0249 4.05917 11.0249C3.24856 9.9572 2.81061 8.65305 2.81251 7.3125C2.81251 5.67147 3.4644 4.09766 4.62478 2.93728C5.78516 1.7769 7.35898 1.125 9.00001 1.125C10.641 1.125 12.2148 1.7769 13.3752 2.93728C14.5356 4.09766 15.1875 5.67147 15.1875 7.3125C15.1895 8.6525 14.7519 9.95615 13.9417 11.0235L13.9408 11.0249C13.9408 11.0249 13.7721 11.2467 13.7469 11.2765L9.00001 16.875ZM4.95704 10.3472C4.9576 10.3476 5.08833 10.5205 5.11825 10.5578L9.00001 15.1357L12.8869 10.5513C12.9116 10.5203 13.0434 10.3461 13.0437 10.3456C13.7059 9.47322 14.0638 8.40776 14.0625 7.3125C14.0625 5.96984 13.5291 4.68217 12.5797 3.73277C11.6303 2.78337 10.3427 2.25 9.00001 2.25C7.65735 2.25 6.36968 2.78337 5.42028 3.73277C4.47088 4.68217 3.93751 5.96984 3.93751 7.3125C3.93626 8.40835 4.2944 9.47437 4.95704 10.3472Z" fill="black"/>
<path d="M11.8125 10.125H10.6875V5.625H7.3125V10.125H6.1875V5.625C6.18781 5.32673 6.30644 5.04076 6.51735 4.82985C6.72826 4.61894 7.01423 4.50031 7.3125 4.5H10.6875C10.9858 4.50031 11.2717 4.61894 11.4826 4.82985C11.6936 5.04076 11.8122 5.32673 11.8125 5.625V10.125Z" fill="black"/>
<path d="M9.5625 9H8.4375V10.125H9.5625V9Z" fill="black"/>
<path d="M9.5625 6.75H8.4375V7.875H9.5625V6.75Z" fill="black"/>
</g>
<defs>
<clipPath id="clip0_725_2031">
<rect width="18" height="18" fill="white"/>
</clipPath>
</defs>
</svg>
