<svg width="16" height="14" viewBox="0 0 16 14" fill="none" xmlns="http://www.w3.org/2000/svg">
<path d="M14.75 6.4375H13.625V3.0625C13.625 2.76413 13.5065 2.47798 13.2955 2.267C13.0845 2.05603 12.7984 1.9375 12.5 1.9375H9.6875C9.38913 1.9375 9.10298 2.05603 8.892 2.267C8.68103 2.47798 8.5625 2.76413 8.5625 3.0625V6.4375H7.4375V1.375C7.4375 1.07663 7.31897 0.790483 7.108 0.579505C6.89702 0.368526 6.61087 0.25 6.3125 0.25H3.5C3.20163 0.25 2.91548 0.368526 2.7045 0.579505C2.49353 0.790483 2.375 1.07663 2.375 1.375V6.4375H1.25C1.10082 6.4375 0.957742 6.49676 0.852252 6.60225C0.746763 6.70774 0.6875 6.85082 0.6875 7C0.6875 7.14918 0.746763 7.29226 0.852252 7.39775C0.957742 7.50324 1.10082 7.5625 1.25 7.5625H2.375V12.625C2.375 12.9234 2.49353 13.2095 2.7045 13.4205C2.91548 13.6315 3.20163 13.75 3.5 13.75H6.3125C6.61087 13.75 6.89702 13.6315 7.108 13.4205C7.31897 13.2095 7.4375 12.9234 7.4375 12.625V7.5625H8.5625V10.9375C8.5625 11.2359 8.68103 11.522 8.892 11.733C9.10298 11.944 9.38913 12.0625 9.6875 12.0625H12.5C12.7984 12.0625 13.0845 11.944 13.2955 11.733C13.5065 11.522 13.625 11.2359 13.625 10.9375V7.5625H14.75C14.8992 7.5625 15.0423 7.50324 15.1477 7.39775C15.2532 7.29226 15.3125 7.14918 15.3125 7C15.3125 6.85082 15.2532 6.70774 15.1477 6.60225C15.0423 6.49676 14.8992 6.4375 14.75 6.4375ZM6.3125 12.625H3.5V1.375H6.3125V12.625ZM12.5 10.9375H9.6875V3.0625H12.5V10.9375Z" fill="black"/>
</svg>
