<svg width="12" height="18" viewBox="0 0 12 18" fill="none" xmlns="http://www.w3.org/2000/svg">
<path d="M5.60611 17.3346C3.95542 17.3346 2.6084 17.102 1.56504 16.6367C0.521679 16.1714 0 15.5707 0 14.8346C0 14.3485 0.225802 13.9249 0.677405 13.5638C1.12901 13.2027 1.75191 12.918 2.54611 12.7096L3.08336 14.293C2.81863 14.3624 2.57725 14.4492 2.35924 14.5534C2.14122 14.6576 1.99328 14.7513 1.91542 14.8346C2.11786 15.0569 2.58504 15.2513 3.31695 15.418C4.04885 15.5846 4.81191 15.668 5.60611 15.668C6.4003 15.668 7.16725 15.5846 7.90695 15.418C8.64664 15.2513 9.11771 15.0569 9.32015 14.8346C9.24229 14.7513 9.09435 14.6576 8.87634 14.5534C8.65832 14.4492 8.41695 14.3624 8.15221 14.293L8.68946 12.7096C9.48366 12.918 10.1027 13.2027 10.5465 13.5638C10.9903 13.9249 11.2122 14.3485 11.2122 14.8346C11.2122 15.5707 10.6905 16.1714 9.64717 16.6367C8.60382 17.102 7.25679 17.3346 5.60611 17.3346ZM5.60611 11.7721C5.88641 11.3138 6.18229 10.8937 6.49374 10.5117C6.80519 10.1298 7.10885 9.76519 7.40473 9.41797C7.98092 8.7513 8.4403 8.15061 8.7829 7.61589C9.1255 7.08116 9.29679 6.41797 9.29679 5.6263C9.29679 4.70964 8.93863 3.93186 8.22229 3.29297C7.50595 2.65408 6.63389 2.33464 5.60611 2.33464C4.57832 2.33464 3.70626 2.65408 2.98992 3.29297C2.27359 3.93186 1.91542 4.70964 1.91542 5.6263C1.91542 6.41797 2.08672 7.08116 2.42931 7.61589C2.77191 8.15061 3.2313 8.7513 3.80748 9.41797C4.10336 9.76519 4.40702 10.1298 4.71847 10.5117C5.02992 10.8937 5.3258 11.3138 5.60611 11.7721ZM5.60611 14.8346C5.43481 14.8346 5.27908 14.7895 5.13893 14.6992C4.99878 14.6089 4.89756 14.4874 4.83527 14.3346C4.4771 13.3485 4.0255 12.5221 3.48046 11.8555C2.93542 11.1888 2.40595 10.5499 1.89206 9.9388C1.39374 9.32769 0.961603 8.69575 0.595649 8.04297C0.229695 7.39019 0.0467176 6.58464 0.0467176 5.6263C0.0467176 4.23741 0.583969 3.0638 1.65847 2.10547C2.73298 1.14714 4.04885 0.667969 5.60611 0.667969C7.16336 0.667969 8.47924 1.14714 9.55374 2.10547C10.6282 3.0638 11.1655 4.23741 11.1655 5.6263C11.1655 6.58464 10.9864 7.39019 10.6282 8.04297C10.2701 8.69575 9.83404 9.32769 9.32015 9.9388C8.82183 10.5499 8.29626 11.1888 7.74343 11.8555C7.19061 12.5221 6.73511 13.3485 6.37695 14.3346C6.31466 14.4874 6.21343 14.6089 6.07328 14.6992C5.93313 14.7895 5.7774 14.8346 5.60611 14.8346ZM5.60611 7.39714C6.15114 7.39714 6.61832 7.22352 7.00763 6.8763C7.39695 6.52908 7.5916 6.11241 7.5916 5.6263C7.5916 5.14019 7.39695 4.72352 7.00763 4.3763C6.61832 4.02908 6.15114 3.85547 5.60611 3.85547C5.06107 3.85547 4.59389 4.02908 4.20458 4.3763C3.81527 4.72352 3.62061 5.14019 3.62061 5.6263C3.62061 6.11241 3.81527 6.52908 4.20458 6.8763C4.59389 7.22352 5.06107 7.39714 5.60611 7.39714Z" fill="#47A8C5"/>
</svg>
