<svg width="24" height="24" viewBox="0 0 24 24" fill="none" xmlns="http://www.w3.org/2000/svg">
<circle cx="12" cy="12" r="12" fill="#3EA101" fill-opacity="0.2"/>
<mask id="mask0_363_1172" style="mask-type:alpha" maskUnits="userSpaceOnUse" x="3" y="3" width="18" height="18">
<rect x="3" y="3" width="18" height="18" fill="#D9D9D9"/>
</mask>
<g mask="url(#mask0_363_1172)">
<path d="M10.95 13.35L9.3375 11.7375C9.2 11.6 9.025 11.5312 8.8125 11.5312C8.6 11.5312 8.425 11.6 8.2875 11.7375C8.15 11.875 8.08125 12.05 8.08125 12.2625C8.08125 12.475 8.15 12.65 8.2875 12.7875L10.425 14.925C10.575 15.075 10.75 15.15 10.95 15.15C11.15 15.15 11.325 15.075 11.475 14.925L15.7125 10.6875C15.85 10.55 15.9188 10.375 15.9188 10.1625C15.9188 9.95 15.85 9.775 15.7125 9.6375C15.575 9.5 15.4 9.43125 15.1875 9.43125C14.975 9.43125 14.8 9.5 14.6625 9.6375L10.95 13.35ZM12 19.5C10.9625 19.5 9.9875 19.3031 9.075 18.9094C8.1625 18.5156 7.36875 17.9813 6.69375 17.3063C6.01875 16.6313 5.48438 15.8375 5.09063 14.925C4.69687 14.0125 4.5 13.0375 4.5 12C4.5 10.9625 4.69687 9.9875 5.09063 9.075C5.48438 8.1625 6.01875 7.36875 6.69375 6.69375C7.36875 6.01875 8.1625 5.48438 9.075 5.09063C9.9875 4.69687 10.9625 4.5 12 4.5C13.0375 4.5 14.0125 4.69687 14.925 5.09063C15.8375 5.48438 16.6313 6.01875 17.3063 6.69375C17.9813 7.36875 18.5156 8.1625 18.9094 9.075C19.3031 9.9875 19.5 10.9625 19.5 12C19.5 13.0375 19.3031 14.0125 18.9094 14.925C18.5156 15.8375 17.9813 16.6313 17.3063 17.3063C16.6313 17.9813 15.8375 18.5156 14.925 18.9094C14.0125 19.3031 13.0375 19.5 12 19.5ZM12 18C13.675 18 15.0938 17.4187 16.2563 16.2563C17.4187 15.0938 18 13.675 18 12C18 10.325 17.4187 8.90625 16.2563 7.74375C15.0938 6.58125 13.675 6 12 6C10.325 6 8.90625 6.58125 7.74375 7.74375C6.58125 8.90625 6 10.325 6 12C6 13.675 6.58125 15.0938 7.74375 16.2563C8.90625 17.4187 10.325 18 12 18Z" fill="#3EA101"/>
</g>
</svg>
