<svg width="22" height="22" viewBox="0 0 22 22" fill="none" xmlns="http://www.w3.org/2000/svg">
<path d="M21.6534 20.1775L14.6971 13.2212C15.7766 11.8257 16.3605 10.1194 16.3605 8.32478C16.3605 6.17656 15.5221 4.16228 14.006 2.64353C12.49 1.12478 10.4703 0.289062 8.32478 0.289062C6.17924 0.289062 4.1596 1.12746 2.64353 2.64353C1.12478 4.1596 0.289062 6.17656 0.289062 8.32478C0.289062 10.4703 1.12746 12.49 2.64353 14.006C4.1596 15.5248 6.17656 16.3605 8.32478 16.3605C10.1194 16.3605 11.823 15.7766 13.2185 14.6998L20.1748 21.6534C20.1952 21.6738 20.2194 21.69 20.2461 21.701C20.2727 21.712 20.3013 21.7177 20.3301 21.7177C20.359 21.7177 20.3876 21.712 20.4142 21.701C20.4409 21.69 20.4651 21.6738 20.4855 21.6534L21.6534 20.4882C21.6738 20.4678 21.69 20.4436 21.701 20.4169C21.712 20.3902 21.7177 20.3617 21.7177 20.3328C21.7177 20.304 21.712 20.2754 21.701 20.2487C21.69 20.2221 21.6738 20.1979 21.6534 20.1775ZM12.5676 12.5676C11.4319 13.7007 9.92656 14.3248 8.32478 14.3248C6.72299 14.3248 5.21763 13.7007 4.08192 12.5676C2.94888 11.4319 2.32478 9.92656 2.32478 8.32478C2.32478 6.72299 2.94888 5.21496 4.08192 4.08192C5.21763 2.94888 6.72299 2.32478 8.32478 2.32478C9.92656 2.32478 11.4346 2.94621 12.5676 4.08192C13.7007 5.21763 14.3248 6.72299 14.3248 8.32478C14.3248 9.92656 13.7007 11.4346 12.5676 12.5676Z" fill="white"/>
</svg>
