<svg width="8" height="5" viewBox="0 0 8 5" fill="none" xmlns="http://www.w3.org/2000/svg">
<path d="M3.9988 4.96716C3.90991 4.96716 3.82658 4.95327 3.7488 4.92549C3.67102 4.89771 3.5988 4.85049 3.53213 4.78383L0.4488 1.70049C0.326578 1.57827 0.268244 1.42549 0.2738 1.24216C0.279355 1.05883 0.343244 0.906048 0.465466 0.783826C0.587689 0.661604 0.743244 0.600493 0.932133 0.600493C1.12102 0.600493 1.27658 0.661604 1.3988 0.783826L3.9988 3.38383L6.61547 0.767159C6.73769 0.644937 6.89047 0.586604 7.0738 0.592159C7.25713 0.597715 7.40991 0.661604 7.53213 0.783826C7.65436 0.906048 7.71547 1.0616 7.71547 1.25049C7.71547 1.43938 7.65436 1.59494 7.53213 1.71716L4.46547 4.78383C4.3988 4.85049 4.32658 4.89771 4.2488 4.92549C4.17102 4.95327 4.08769 4.96716 3.9988 4.96716Z" fill="white"/>
</svg>
