<svg width="18" height="18" viewBox="0 0 18 18" fill="none" xmlns="http://www.w3.org/2000/svg">
<g clip-path="url(#clip0_725_1576)">
<path d="M9.5625 1.125H8.4375V3.915H9.5625V1.125Z" fill="white"/>
<path d="M14.1716 3.02815L12.1987 5.00098L12.9942 5.79647L14.9671 3.82364L14.1716 3.02815Z" fill="white"/>
<path d="M16.875 8.4375H14.085V9.5625H16.875V8.4375Z" fill="white"/>
<path d="M12.9976 12.2001L12.2021 12.9956L14.175 14.9684L14.9705 14.1729L12.9976 12.2001Z" fill="white"/>
<path d="M9.5625 14.085H8.4375V16.875H9.5625V14.085Z" fill="white"/>
<path d="M5.00847 12.2034L3.03564 14.1763L3.83114 14.9718L5.80397 12.9989L5.00847 12.2034Z" fill="white"/>
<path d="M3.915 8.4375H1.125V9.5625H3.915V8.4375Z" fill="white"/>
<path d="M3.82772 3.03141L3.03223 3.8269L5.00505 5.79973L5.80055 5.00424L3.82772 3.03141Z" fill="white"/>
<path d="M9 6.75C9.44501 6.75 9.88002 6.88196 10.25 7.12919C10.62 7.37643 10.9084 7.72783 11.0787 8.13896C11.249 8.5501 11.2936 9.0025 11.2068 9.43895C11.12 9.87541 10.9057 10.2763 10.591 10.591C10.2763 10.9057 9.87541 11.12 9.43895 11.2068C9.0025 11.2936 8.5501 11.249 8.13896 11.0787C7.72783 10.9084 7.37643 10.62 7.12919 10.25C6.88196 9.88002 6.75 9.44501 6.75 9C6.75 8.40326 6.98705 7.83097 7.40901 7.40901C7.83097 6.98705 8.40326 6.75 9 6.75ZM9 5.625C8.33249 5.625 7.67997 5.82294 7.12495 6.19379C6.56994 6.56464 6.13735 7.09174 5.88191 7.70844C5.62646 8.32514 5.55963 9.00374 5.68985 9.65843C5.82008 10.3131 6.14151 10.9145 6.61352 11.3865C7.08552 11.8585 7.68689 12.1799 8.34157 12.3102C8.99626 12.4404 9.67486 12.3735 10.2916 12.1181C10.9083 11.8626 11.4354 11.4301 11.8062 10.875C12.1771 10.32 12.375 9.66751 12.375 9C12.375 8.10489 12.0194 7.24645 11.3865 6.61351C10.7536 5.98058 9.89511 5.625 9 5.625Z" fill="white"/>
</g>
<defs>
<clipPath id="clip0_725_1576">
<rect width="18" height="18" fill="white"/>
</clipPath>
</defs>
</svg>
