<svg width="14" height="14" viewBox="0 0 14 14" fill="none" xmlns="http://www.w3.org/2000/svg">
<path d="M12.9375 5.06226C13.0867 5.06226 13.2298 5.003 13.3352 4.89751C13.4407 4.79202 13.5 4.64894 13.5 4.49976V2.81226C13.5 2.69666 13.4643 2.58388 13.3979 2.48927C13.3314 2.39466 13.2375 2.32282 13.1287 2.28351L6.94125 0.0335107C6.81766 -0.0111702 6.68234 -0.0111702 6.55875 0.0335107L0.37125 2.28351C0.262535 2.32282 0.168571 2.39466 0.102143 2.48927C0.0357144 2.58388 4.91848e-05 2.69666 0 2.81226V4.49976C0 4.64894 0.0592633 4.79202 0.164753 4.89751C0.270242 5.003 0.413316 5.06226 0.5625 5.06226H1.125V12.3748H0V13.4998H13.5V12.3748H12.375V5.06226H12.9375ZM1.125 3.20601L6.75 1.15851L12.375 3.20601V3.93726H1.125V3.20601ZM7.875 12.3748H5.625V5.06226H7.875V12.3748ZM2.25 5.06226H4.5V12.3748H2.25V5.06226ZM11.25 12.3748H9V5.06226H11.25V12.3748Z" fill="black"/>
</svg>
