<svg width="21" height="20" viewBox="0 0 21 20" fill="none" xmlns="http://www.w3.org/2000/svg">
<path d="M10.2076 6.25C10.9123 6.25 11.4835 5.69036 11.4835 5C11.4835 4.30964 10.9123 3.75 10.2076 3.75C9.5029 3.75 8.93164 4.30964 8.93164 5C8.93164 5.69036 9.5029 6.25 10.2076 6.25Z" fill="black"/>
<path d="M10.2076 11.25C10.9123 11.25 11.4835 10.6904 11.4835 10C11.4835 9.30964 10.9123 8.75 10.2076 8.75C9.5029 8.75 8.93164 9.30964 8.93164 10C8.93164 10.6904 9.5029 11.25 10.2076 11.25Z" fill="black"/>
<path d="M10.2076 16.25C10.9123 16.25 11.4835 15.6904 11.4835 15C11.4835 14.3096 10.9123 13.75 10.2076 13.75C9.5029 13.75 8.93164 14.3096 8.93164 15C8.93164 15.6904 9.5029 16.25 10.2076 16.25Z" fill="black"/>
</svg>
