<svg width="56" height="56" viewBox="0 0 56 56" fill="none" xmlns="http://www.w3.org/2000/svg">
<circle cx="28" cy="28" r="26.5" fill="#161616" stroke="#161616" stroke-width="3"/>
<path d="M18.9688 33.3591C17.6642 31.16 17.2074 28.5602 17.684 26.048C18.1606 23.5359 19.5379 21.2841 21.5572 19.7155C23.5766 18.147 26.0991 17.3696 28.6511 17.5293C31.2031 17.689 33.6091 18.7748 35.4171 20.5828C37.2252 22.3909 38.311 24.7968 38.4707 27.3488C38.6304 29.9008 37.853 32.4233 36.2845 34.4427C34.716 36.4621 32.4642 37.8394 29.952 38.316C27.4398 38.7927 24.8401 38.3358 22.6409 37.0313L22.6409 37.0311L19.0144 38.0673C18.8644 38.1102 18.7056 38.1121 18.5546 38.073C18.4035 38.0338 18.2657 37.955 18.1553 37.8447C18.045 37.7343 17.9662 37.5965 17.927 37.4454C17.8879 37.2944 17.8898 37.1356 17.9327 36.9856L18.9689 33.3591L18.9688 33.3591Z" stroke="#47A8C5" stroke-width="2" stroke-linecap="round" stroke-linejoin="round"/>
</svg>
