<svg width="12" height="12" viewBox="0 0 12 12" fill="none" xmlns="http://www.w3.org/2000/svg">
<path d="M1.436 10.6666H2.26035L8.43347 4.49349L7.60912 3.66912L1.436 9.84224V10.6666ZM10.5719 3.77042L8.32192 1.54097L9.19755 0.66534C9.38901 0.473896 9.6249 0.378174 9.90524 0.378174C10.1856 0.378174 10.4215 0.473896 10.6129 0.66534L11.4373 1.48969C11.6287 1.68113 11.7279 1.91361 11.7347 2.18711C11.7415 2.46061 11.6492 2.69308 11.4578 2.88452L10.5719 3.77042ZM1.03859 11.6666C0.866796 11.6666 0.723424 11.6091 0.608468 11.4941C0.493513 11.3792 0.436035 11.2358 0.436035 11.064V9.66789C0.436035 9.58755 0.450563 9.51105 0.479618 9.43841C0.508674 9.36575 0.554402 9.29823 0.616802 9.23584L7.59885 2.25377L9.84882 4.50374L2.86675 11.4858C2.80436 11.5482 2.73685 11.5939 2.6642 11.623C2.59155 11.652 2.51505 11.6666 2.4347 11.6666H1.03859Z" fill="#47A8C5"/>
</svg>
