<svg width="32" height="32" viewBox="0 0 32 32" fill="none" xmlns="http://www.w3.org/2000/svg">
<path d="M31.67 15.835C31.67 24.5804 24.5804 31.67 15.835 31.67C7.08957 31.67 0 24.5804 0 15.835C0 7.08957 7.08957 0 15.835 0C24.5804 0 31.67 7.08957 31.67 15.835Z" fill="white"/>
<path d="M15.8361 31.6666C13.6462 31.6666 11.5878 31.251 9.66092 30.4199C7.734 29.5888 6.05786 28.4609 4.6325 27.0362C3.20711 25.6114 2.07868 23.936 1.24721 22.01C0.415736 20.0839 0 18.026 0 15.8361C0 13.6462 0.415556 11.5878 1.24667 9.66092C2.07778 7.734 3.20569 6.05786 4.63042 4.6325C6.05517 3.20711 7.73057 2.07868 9.65663 1.24721C11.5827 0.415736 13.6406 0 15.8305 0C18.0204 0 20.0788 0.415556 22.0057 1.24667C23.9326 2.07778 25.6087 3.2057 27.0341 4.63042C28.4595 6.05517 29.5879 7.73057 30.4194 9.65663C31.2509 11.5827 31.6666 13.6406 31.6666 15.8305C31.6666 18.0204 31.251 20.0788 30.4199 22.0057C29.5888 23.9326 28.4609 25.6087 27.0362 27.0341C25.6114 28.4595 23.936 29.5879 22.01 30.4194C20.0839 31.2508 18.026 31.6666 15.8361 31.6666ZM17.1763 17.0833L14.9551 19.3045C14.7243 19.5352 14.6116 19.8226 14.617 20.1666C14.6223 20.5106 14.7404 20.798 14.9711 21.0288C15.2019 21.2595 15.4928 21.3749 15.844 21.3749C16.1951 21.3749 16.4843 21.2595 16.7115 21.0288L20.8525 16.8878C21.1538 16.5865 21.3044 16.235 21.3044 15.8333C21.3044 15.4316 21.1538 15.0801 20.8525 14.7788L16.6955 10.6218C16.4647 10.391 16.1773 10.2756 15.8333 10.2756C15.4893 10.2756 15.2019 10.391 14.9711 10.6218C14.7404 10.8525 14.625 11.1435 14.625 11.4946C14.625 11.8458 14.7404 12.1349 14.9711 12.3621L17.1763 14.5833H10.8333C10.4791 14.5833 10.1823 14.7032 9.94271 14.9428C9.70313 15.1825 9.58333 15.4795 9.58333 15.8338C9.58333 16.1882 9.70313 16.485 9.94271 16.7243C10.1823 16.9636 10.4791 17.0833 10.8333 17.0833H17.1763Z" fill="black"/>
</svg>
