<svg width="18" height="18" viewBox="0 0 18 18" fill="none" xmlns="http://www.w3.org/2000/svg">
<g clip-path="url(#clip0_725_2653)">
<path d="M12.9375 9H11.8125V10.125H12.9375V9Z" fill="black"/>
<path d="M9.5625 9H5.0625V10.125H9.5625V9Z" fill="black"/>
<path d="M12.9375 6.75H11.8125V7.875H12.9375V6.75Z" fill="black"/>
<path d="M9.5625 6.75H5.0625V7.875H9.5625V6.75Z" fill="black"/>
<path d="M12.9375 4.5H5.0625V5.625H12.9375V4.5Z" fill="black"/>
<path d="M14.0625 1.125H3.9375C3.63922 1.1253 3.35325 1.24392 3.14233 1.45483C2.93142 1.66575 2.8128 1.95172 2.8125 2.25V16.3125C2.8125 16.4617 2.87176 16.6048 2.97725 16.7102C3.08274 16.8157 3.22582 16.875 3.375 16.875H3.9375C4.02484 16.8751 4.11098 16.8548 4.1891 16.8157C4.26721 16.7766 4.33514 16.7199 4.3875 16.65L5.625 15.0002L6.8625 16.65C6.91713 16.7165 6.98582 16.7701 7.06363 16.8069C7.14144 16.8436 7.22644 16.8627 7.3125 16.8627C7.39856 16.8627 7.48356 16.8436 7.56137 16.8069C7.63918 16.7701 7.70787 16.7165 7.7625 16.65L9 15.0002L10.2375 16.65C10.2921 16.7165 10.3608 16.7701 10.4386 16.8069C10.5164 16.8436 10.6014 16.8627 10.6875 16.8627C10.7736 16.8627 10.8586 16.8436 10.9364 16.8069C11.0142 16.7701 11.0829 16.7165 11.1375 16.65L12.375 15.0002L13.6125 16.65C13.6649 16.7199 13.7328 16.7766 13.8109 16.8157C13.889 16.8547 13.9752 16.875 14.0625 16.875H14.625C14.7742 16.875 14.9173 16.8157 15.0227 16.7102C15.1282 16.6048 15.1875 16.4617 15.1875 16.3125V2.25C15.1872 1.95174 15.0685 1.66579 14.8576 1.45488C14.6467 1.24398 14.3608 1.12534 14.0625 1.125ZM14.0625 15.3748L12.825 13.725C12.7704 13.6585 12.7017 13.6049 12.6239 13.5681C12.5461 13.5314 12.4611 13.5123 12.375 13.5123C12.2889 13.5123 12.2039 13.5314 12.1261 13.5681C12.0483 13.6049 11.9796 13.6585 11.925 13.725L10.6875 15.3748L9.45 13.725C9.39537 13.6585 9.32668 13.6049 9.24887 13.5681C9.17106 13.5314 9.08606 13.5123 9 13.5123C8.91394 13.5123 8.82894 13.5314 8.75113 13.5681C8.67332 13.6049 8.60463 13.6585 8.55 13.725L7.3125 15.3748L6.075 13.725C6.02037 13.6585 5.95168 13.6049 5.87387 13.5681C5.79606 13.5314 5.71106 13.5123 5.625 13.5123C5.53894 13.5123 5.45394 13.5314 5.37613 13.5681C5.29832 13.6049 5.22963 13.6585 5.175 13.725L3.9375 15.3748V2.25H14.0625V15.3748Z" fill="black"/>
</g>
<defs>
<clipPath id="clip0_725_2653">
<rect width="18" height="18" fill="white"/>
</clipPath>
</defs>
</svg>
