<svg width="18" height="24" viewBox="0 0 18 24" fill="none" xmlns="http://www.w3.org/2000/svg">
<path d="M17.1429 18.8539H16.5V9.74678C16.5 5.96731 13.7063 2.8441 10.0714 2.32445V1.28249C10.0714 0.690524 9.59196 0.21106 9 0.21106C8.40804 0.21106 7.92857 0.690524 7.92857 1.28249V2.32445C4.29375 2.8441 1.5 5.96731 1.5 9.74678V18.8539H0.857143C0.383036 18.8539 0 19.237 0 19.7111V20.5682C0 20.6861 0.0964286 20.7825 0.214286 20.7825H6C6 22.4378 7.34464 23.7825 9 23.7825C10.6554 23.7825 12 22.4378 12 20.7825H17.7857C17.9036 20.7825 18 20.6861 18 20.5682V19.7111C18 19.237 17.617 18.8539 17.1429 18.8539ZM9 22.0682C8.29018 22.0682 7.71429 21.4923 7.71429 20.7825H10.2857C10.2857 21.4923 9.70982 22.0682 9 22.0682ZM3.42857 18.8539V9.74678C3.42857 8.25749 4.00714 6.85927 5.05982 5.8066C6.1125 4.75392 7.51072 4.17535 9 4.17535C10.4893 4.17535 11.8875 4.75392 12.9402 5.8066C13.9929 6.85927 14.5714 8.25749 14.5714 9.74678V18.8539H3.42857Z" fill="white"/>
</svg>
