<svg width="9" height="9" viewBox="0 0 9 9" fill="none" xmlns="http://www.w3.org/2000/svg">
<path d="M7.66562 2.6L1.74895 8.53333C1.61562 8.66666 1.45729 8.73333 1.27395 8.73333C1.09062 8.73333 0.932287 8.66666 0.798953 8.53333C0.66562 8.39999 0.598953 8.24166 0.598953 8.05833C0.598953 7.875 0.66562 7.71666 0.798953 7.58333L6.73229 1.66666H1.66562C1.47673 1.66666 1.3184 1.60277 1.19062 1.47499C1.06284 1.34722 0.998953 1.18888 0.998953 0.999995C0.998953 0.811106 1.06284 0.652773 1.19062 0.524995C1.3184 0.397217 1.47673 0.333328 1.66562 0.333328H8.33229C8.52118 0.333328 8.67951 0.397217 8.80729 0.524995C8.93506 0.652773 8.99895 0.811106 8.99895 0.999995V7.66666C8.99895 7.85555 8.93506 8.01388 8.80729 8.14166C8.67951 8.26944 8.52118 8.33333 8.33229 8.33333C8.1434 8.33333 7.98506 8.26944 7.85729 8.14166C7.72951 8.01388 7.66562 7.85555 7.66562 7.66666V2.6Z" fill="#47A8C5"/>
</svg>
