<svg width="9" height="9" viewBox="0 0 9 9" fill="none" xmlns="http://www.w3.org/2000/svg">
<path d="M7.66432 2.60065L1.74766 8.53399C1.61432 8.66732 1.45599 8.73398 1.27266 8.73398C1.08932 8.73398 0.93099 8.66732 0.797656 8.53399C0.664323 8.40065 0.597656 8.24232 0.597656 8.05898C0.597656 7.87565 0.664323 7.71732 0.797656 7.58398L6.73099 1.66732H1.66432C1.47543 1.66732 1.3171 1.60343 1.18932 1.47565C1.06155 1.34787 0.997656 1.18954 0.997656 1.00065C0.997656 0.811762 1.06155 0.653429 1.18932 0.525651C1.3171 0.397873 1.47543 0.333984 1.66432 0.333984H8.33099C8.51988 0.333984 8.67821 0.397873 8.80599 0.525651C8.93377 0.653429 8.99766 0.811762 8.99766 1.00065V7.66732C8.99766 7.85621 8.93377 8.01454 8.80599 8.14232C8.67821 8.2701 8.51988 8.33398 8.33099 8.33398C8.1421 8.33398 7.98377 8.2701 7.85599 8.14232C7.72821 8.01454 7.66432 7.85621 7.66432 7.66732V2.60065Z" fill="#0E5A95"/>
</svg>
