<svg width="18" height="18" viewBox="0 0 18 18" fill="none" xmlns="http://www.w3.org/2000/svg">
<g clip-path="url(#clip0_725_1759)">
<path d="M15.75 3.375V14.625H2.25V3.375H15.75ZM15.75 2.25H2.25C1.95163 2.25 1.66548 2.36853 1.4545 2.5795C1.24353 2.79048 1.125 3.07663 1.125 3.375V14.625C1.125 14.9234 1.24353 15.2095 1.4545 15.4205C1.66548 15.6315 1.95163 15.75 2.25 15.75H15.75C16.0484 15.75 16.3345 15.6315 16.5455 15.4205C16.7565 15.2095 16.875 14.9234 16.875 14.625V3.375C16.875 3.07663 16.7565 2.79048 16.5455 2.5795C16.3345 2.36853 16.0484 2.25 15.75 2.25Z" fill="black"/>
<path d="M7.3125 5.625H3.375V6.75H7.3125V5.625Z" fill="black"/>
<path d="M5.625 7.875H3.375V9H5.625V7.875Z" fill="black"/>
<path d="M12.9375 10.125H9.5625C9.11495 10.125 8.68572 10.3028 8.36926 10.6193C8.05279 10.9357 7.875 11.3649 7.875 11.8125V12.9375H9V11.8125C9 11.6633 9.05926 11.5202 9.16475 11.4148C9.27024 11.3093 9.41332 11.25 9.5625 11.25H12.9375C13.0867 11.25 13.2298 11.3093 13.3352 11.4148C13.4407 11.5202 13.5 11.6633 13.5 11.8125V12.9375H14.625V11.8125C14.625 11.3649 14.4472 10.9357 14.1307 10.6193C13.8143 10.3028 13.3851 10.125 12.9375 10.125Z" fill="black"/>
<path d="M11.25 9.5625C11.695 9.5625 12.13 9.43054 12.5 9.18331C12.87 8.93607 13.1584 8.58467 13.3287 8.17354C13.499 7.76241 13.5436 7.31001 13.4568 6.87355C13.37 6.43709 13.1557 6.03618 12.841 5.72151C12.5263 5.40684 12.1254 5.19255 11.689 5.10573C11.2525 5.01892 10.8001 5.06347 10.389 5.23377C9.97783 5.40407 9.62643 5.69246 9.37919 6.06247C9.13196 6.43248 9 6.86749 9 7.3125C9 7.90924 9.23705 8.48153 9.65901 8.90349C10.081 9.32545 10.6533 9.5625 11.25 9.5625ZM11.25 6.1875C11.4725 6.1875 11.69 6.25348 11.875 6.3771C12.06 6.50071 12.2042 6.67642 12.2894 6.88198C12.3745 7.08755 12.3968 7.31375 12.3534 7.53198C12.31 7.75021 12.2028 7.95066 12.0455 8.108C11.8882 8.26533 11.6877 8.37248 11.4695 8.41588C11.2512 8.45929 11.025 8.43701 10.8195 8.35187C10.6139 8.26672 10.4382 8.12252 10.3146 7.93752C10.191 7.75251 10.125 7.53501 10.125 7.3125C10.125 7.01413 10.2435 6.72798 10.4545 6.51701C10.6655 6.30603 10.9516 6.1875 11.25 6.1875Z" fill="black"/>
</g>
<defs>
<clipPath id="clip0_725_1759">
<rect width="18" height="18" fill="white"/>
</clipPath>
</defs>
</svg>
