<svg width="10" height="14" viewBox="0 0 10 14" fill="none" xmlns="http://www.w3.org/2000/svg">
<path d="M5.27428 13.4173C3.90892 13.4173 2.79474 13.2382 1.93172 12.8799C1.06871 12.5217 0.637207 12.0591 0.637207 11.4923C0.637207 11.118 0.823978 10.7918 1.19752 10.5138C1.57106 10.2357 2.08629 10.0165 2.74321 9.85607L3.1876 11.0752C2.96863 11.1287 2.76897 11.1955 2.58864 11.2758C2.40831 11.356 2.28595 11.4282 2.22154 11.4923C2.38899 11.6634 2.77541 11.8132 3.38081 11.9415C3.98621 12.0698 4.61737 12.134 5.27428 12.134C5.9312 12.134 6.56558 12.0698 7.17742 11.9415C7.78926 11.8132 8.1789 11.6634 8.34635 11.4923C8.28194 11.4282 8.15958 11.356 7.97925 11.2758C7.79892 11.1955 7.59926 11.1287 7.38029 11.0752L7.82468 9.85607C8.4816 10.0165 8.99361 10.2357 9.36071 10.5138C9.72781 10.7918 9.91136 11.118 9.91136 11.4923C9.91136 12.0591 9.47986 12.5217 8.61684 12.8799C7.75383 13.2382 6.63965 13.4173 5.27428 13.4173ZM5.27428 9.13419C5.50614 8.78128 5.75087 8.45777 6.00849 8.16367C6.2661 7.86957 6.51728 7.58885 6.76201 7.32148C7.2386 6.80815 7.61859 6.34562 7.90196 5.93388C8.18534 5.52214 8.32703 5.01148 8.32703 4.4019C8.32703 3.69607 8.03077 3.09718 7.43825 2.60523C6.84574 2.11329 6.12442 1.86732 5.27428 1.86732C4.42415 1.86732 3.70283 2.11329 3.11032 2.60523C2.5178 3.09718 2.22154 3.69607 2.22154 4.4019C2.22154 5.01148 2.36323 5.52214 2.64661 5.93388C2.92998 6.34562 3.30997 6.80815 3.78656 7.32148C4.03129 7.58885 4.28247 7.86957 4.54008 8.16367C4.7977 8.45777 5.04243 8.78128 5.27428 9.13419ZM5.27428 11.4923C5.1326 11.4923 5.00379 11.4576 4.88786 11.388C4.77193 11.3185 4.68821 11.225 4.63669 11.1073C4.34043 10.348 3.96689 9.71169 3.51606 9.19836C3.06523 8.68503 2.62729 8.19308 2.20222 7.72253C1.79004 7.25197 1.43259 6.76537 1.1299 6.26273C0.827198 5.7601 0.675849 5.13982 0.675849 4.4019C0.675849 3.33246 1.12024 2.42878 2.00901 1.69086C2.89778 0.952943 3.98621 0.583984 5.27428 0.583984C6.56236 0.583984 7.65079 0.952943 8.53956 1.69086C9.42833 2.42878 9.87272 3.33246 9.87272 4.4019C9.87272 5.13982 9.72459 5.7601 9.42833 6.26273C9.13208 6.76537 8.77141 7.25197 8.34635 7.72253C7.93416 8.19308 7.49944 8.68503 7.04217 9.19836C6.5849 9.71169 6.20814 10.348 5.91188 11.1073C5.86036 11.225 5.77663 11.3185 5.66071 11.388C5.54478 11.4576 5.41597 11.4923 5.27428 11.4923ZM5.27428 5.76544C5.72511 5.76544 6.11153 5.63176 6.43355 5.3644C6.75557 5.09704 6.91658 4.77621 6.91658 4.4019C6.91658 4.0276 6.75557 3.70676 6.43355 3.4394C6.11153 3.17204 5.72511 3.03836 5.27428 3.03836C4.82346 3.03836 4.43703 3.17204 4.11502 3.4394C3.793 3.70676 3.63199 4.0276 3.63199 4.4019C3.63199 4.77621 3.793 5.09704 4.11502 5.3644C4.43703 5.63176 4.82346 5.76544 5.27428 5.76544Z" fill="black" fill-opacity="0.5"/>
</svg>
