<svg width="4" height="14" viewBox="0 0 4 14" fill="none" xmlns="http://www.w3.org/2000/svg">
<path d="M2.0026 13.6654C1.54427 13.6654 1.15191 13.5022 0.825521 13.1758C0.499132 12.8494 0.335938 12.457 0.335938 11.9987C0.335938 11.5404 0.499132 11.148 0.825521 10.8216C1.15191 10.4952 1.54427 10.332 2.0026 10.332C2.46094 10.332 2.8533 10.4952 3.17969 10.8216C3.50608 11.148 3.66927 11.5404 3.66927 11.9987C3.66927 12.457 3.50608 12.8494 3.17969 13.1758C2.8533 13.5022 2.46094 13.6654 2.0026 13.6654ZM2.0026 8.66536C1.54427 8.66536 1.15191 8.50217 0.825521 8.17578C0.499132 7.84939 0.335938 7.45703 0.335938 6.9987C0.335938 6.54036 0.499132 6.148 0.825521 5.82161C1.15191 5.49523 1.54427 5.33203 2.0026 5.33203C2.46094 5.33203 2.8533 5.49523 3.17969 5.82161C3.50608 6.148 3.66927 6.54036 3.66927 6.9987C3.66927 7.45703 3.50608 7.84939 3.17969 8.17578C2.8533 8.50217 2.46094 8.66536 2.0026 8.66536ZM2.0026 3.66536C1.54427 3.66536 1.15191 3.50217 0.825521 3.17578C0.499132 2.84939 0.335938 2.45703 0.335938 1.9987C0.335938 1.54036 0.499132 1.148 0.825521 0.821615C1.15191 0.495226 1.54427 0.332031 2.0026 0.332031C2.46094 0.332031 2.8533 0.495226 3.17969 0.821615C3.50608 1.148 3.66927 1.54036 3.66927 1.9987C3.66927 2.45703 3.50608 2.84939 3.17969 3.17578C2.8533 3.50217 2.46094 3.66536 2.0026 3.66536Z" fill="#979797"/>
</svg>
