<svg width="18" height="18" viewBox="0 0 18 18" fill="none" xmlns="http://www.w3.org/2000/svg">
<g clip-path="url(#clip0_725_2101)">
<path d="M13.5 7.3125H12.375C12.3745 6.8651 12.1966 6.43616 11.8802 6.1198C11.5638 5.80344 11.1349 5.62549 10.6875 5.625V4.5C11.4332 4.50085 12.148 4.79744 12.6753 5.3247C13.2026 5.85196 13.4992 6.56684 13.5 7.3125Z" fill="black"/>
<path d="M15.75 7.3125H14.625C14.6238 6.26857 14.2086 5.26772 13.4705 4.52955C12.7323 3.79138 11.7314 3.37616 10.6875 3.375V2.25C12.0297 2.25149 13.3165 2.78534 14.2656 3.73442C15.2147 4.6835 15.7485 5.9703 15.75 7.3125Z" fill="black"/>
<path d="M14.6251 16.3125H14.5295C3.47633 15.6769 1.90696 6.35063 1.68759 3.50438C1.67059 3.28342 1.69729 3.06128 1.76615 2.85064C1.83501 2.64 1.94468 2.44499 2.08891 2.27674C2.23313 2.10848 2.40909 1.97028 2.60672 1.87003C2.80436 1.76978 3.0198 1.70944 3.24076 1.69245C3.28531 1.68915 3.33009 1.6875 3.37509 1.6875H6.33946C6.56477 1.68728 6.78496 1.75472 6.9715 1.88109C7.15804 2.00746 7.30234 2.18693 7.38571 2.39625L8.24071 4.5C8.32303 4.7045 8.34346 4.92867 8.29946 5.14468C8.25546 5.36068 8.14897 5.559 7.99321 5.715L6.79508 6.92438C6.98148 7.98825 7.49055 8.96905 8.25327 9.73379C9.016 10.4985 9.99546 11.0102 11.0588 11.1994L12.2795 9.99C12.4378 9.83596 12.638 9.73195 12.8551 9.69094C13.0721 9.64993 13.2965 9.67373 13.5001 9.75938L15.6207 10.6088C15.8269 10.6947 16.0028 10.8402 16.126 11.0265C16.2492 11.2128 16.3142 11.4316 16.3126 11.655V14.625C16.3126 15.0726 16.1348 15.5018 15.8183 15.8182C15.5019 16.1347 15.0726 16.3125 14.6251 16.3125ZM3.37509 2.8125C3.30122 2.81226 3.22802 2.82658 3.15969 2.85463C3.09135 2.88268 3.02921 2.92391 2.97681 2.97598C2.92441 3.02805 2.88278 3.08992 2.85429 3.15808C2.8258 3.22623 2.81102 3.29933 2.81079 3.3732C2.81079 3.38884 2.81139 3.40444 2.81259 3.42C3.07134 6.75 4.73071 14.625 14.5913 15.1875C14.6651 15.1919 14.739 15.1818 14.8088 15.1577C14.8786 15.1336 14.943 15.0959 14.9983 15.0469C15.0535 14.9979 15.0986 14.9385 15.1309 14.8721C15.1632 14.8056 15.1821 14.7335 15.1866 14.6598C15.1872 14.6482 15.1876 14.6366 15.1876 14.625V11.655L13.067 10.8056L11.4526 12.4087L11.1826 12.375C6.28883 11.7619 5.62509 6.86813 5.62509 6.8175L5.59133 6.5475L7.18884 4.93313L6.34509 2.8125H3.37509Z" fill="black"/>
</g>
<defs>
<clipPath id="clip0_725_2101">
<rect width="18" height="18" fill="white"/>
</clipPath>
</defs>
</svg>
