<svg width="18" height="18" viewBox="0 0 18 18" fill="none" xmlns="http://www.w3.org/2000/svg">
<g clip-path="url(#clip0_725_2050)">
<path d="M5.625 4.5H4.5V6.75H5.625V4.5Z" fill="black"/>
<path d="M5.625 7.875H4.5V10.125H5.625V7.875Z" fill="black"/>
<path d="M9 4.5H7.875V6.75H9V4.5Z" fill="black"/>
<path d="M9 7.875H7.875V10.125H9V7.875Z" fill="black"/>
<path d="M5.625 11.25H4.5V13.5H5.625V11.25Z" fill="black"/>
<path d="M9 11.25H7.875V13.5H9V11.25Z" fill="black"/>
<path d="M16.875 7.875C16.875 7.57663 16.7565 7.29048 16.5455 7.0795C16.3345 6.86853 16.0484 6.75 15.75 6.75H12.375V2.25C12.375 1.95163 12.2565 1.66548 12.0455 1.4545C11.8345 1.24353 11.5484 1.125 11.25 1.125H2.25C1.95163 1.125 1.66548 1.24353 1.4545 1.4545C1.24353 1.66548 1.125 1.95163 1.125 2.25V16.875H16.875V7.875ZM2.25 2.25H11.25V15.75H2.25V2.25ZM12.375 15.75V7.875H15.75V15.75H12.375Z" fill="black"/>
</g>
<defs>
<clipPath id="clip0_725_2050">
<rect width="18" height="18" fill="white"/>
</clipPath>
</defs>
</svg>
