<svg width="12" height="12" viewBox="0 0 12 12" fill="none" xmlns="http://www.w3.org/2000/svg">
<mask id="mask0_363_791" style="mask-type:alpha" maskUnits="userSpaceOnUse" x="0" y="0" width="12" height="12">
<rect y="3.05176e-05" width="12" height="12" fill="#D9D9D9"/>
</mask>
<g mask="url(#mask0_363_791)">
<path d="M6.00012 6.00009C6.27512 6.00009 6.51062 5.90209 6.70662 5.70609C6.90229 5.51042 7.00012 5.27509 7.00012 5.00009C7.00012 4.72509 6.90229 4.48959 6.70662 4.29359C6.51062 4.09792 6.27512 4.00009 6.00012 4.00009C5.72512 4.00009 5.48979 4.09792 5.29412 4.29359C5.09812 4.48959 5.00012 4.72509 5.00012 5.00009C5.00012 5.27509 5.09812 5.51042 5.29412 5.70609C5.48979 5.90209 5.72512 6.00009 6.00012 6.00009ZM6.00012 9.67509C7.01679 8.74176 7.77095 7.89376 8.26262 7.13109C8.75429 6.36876 9.00012 5.69176 9.00012 5.10009C9.00012 4.19176 8.71045 3.44792 8.13112 2.86859C7.55212 2.28959 6.84179 2.00009 6.00012 2.00009C5.15846 2.00009 4.44796 2.28959 3.86862 2.86859C3.28962 3.44792 3.00012 4.19176 3.00012 5.10009C3.00012 5.69176 3.24596 6.36876 3.73762 7.13109C4.22929 7.89376 4.98346 8.74176 6.00012 9.67509ZM6.00012 11.0001C4.65846 9.85842 3.65646 8.79792 2.99412 7.81859C2.33146 6.83959 2.00012 5.93342 2.00012 5.10009C2.00012 3.85009 2.40229 2.85426 3.20662 2.11259C4.01062 1.37092 4.94179 1.00009 6.00012 1.00009C7.05846 1.00009 7.98962 1.37092 8.79362 2.11259C9.59795 2.85426 10.0001 3.85009 10.0001 5.10009C10.0001 5.93342 9.66896 6.83959 9.00662 7.81859C8.34396 8.79792 7.34179 9.85842 6.00012 11.0001Z" fill="white"/>
</g>
</svg>
