<svg width="14" height="14" viewBox="0 0 14 14" fill="none" xmlns="http://www.w3.org/2000/svg">
<path d="M13.6925 1.19253L9.75894 5.12535H12.0003C12.1661 5.12535 12.3251 5.1912 12.4423 5.30841C12.5595 5.42562 12.6253 5.58459 12.6253 5.75035C12.6253 5.91611 12.5595 6.07508 12.4423 6.19229C12.3251 6.3095 12.1661 6.37535 12.0003 6.37535H8.25035C8.08459 6.37535 7.92562 6.3095 7.80841 6.19229C7.6912 6.07508 7.62535 5.91611 7.62535 5.75035V2.00035C7.62535 1.83459 7.6912 1.67562 7.80841 1.55841C7.92562 1.4412 8.08459 1.37535 8.25035 1.37535C8.41611 1.37535 8.57508 1.4412 8.69229 1.55841C8.8095 1.67562 8.87535 1.83459 8.87535 2.00035V4.24175L12.8082 0.30816C12.9254 0.190885 13.0845 0.125 13.2503 0.125C13.4162 0.125 13.5753 0.190885 13.6925 0.30816C13.8098 0.425435 13.8757 0.584495 13.8757 0.750347C13.8757 0.9162 13.8098 1.07526 13.6925 1.19253ZM5.75035 7.62535H2.00035C1.83459 7.62535 1.67562 7.6912 1.55841 7.80841C1.4412 7.92562 1.37535 8.08459 1.37535 8.25035C1.37535 8.41611 1.4412 8.57508 1.55841 8.69229C1.67562 8.8095 1.83459 8.87535 2.00035 8.87535H4.24175L0.30816 12.8082C0.190885 12.9254 0.125 13.0845 0.125 13.2503C0.125 13.4162 0.190885 13.5753 0.30816 13.6925C0.425435 13.8098 0.584495 13.8757 0.750347 13.8757C0.9162 13.8757 1.07526 13.8098 1.19253 13.6925L5.12535 9.75894V12.0003C5.12535 12.1661 5.1912 12.3251 5.30841 12.4423C5.42562 12.5595 5.58459 12.6253 5.75035 12.6253C5.91611 12.6253 6.07508 12.5595 6.19229 12.4423C6.3095 12.3251 6.37535 12.1661 6.37535 12.0003V8.25035C6.37535 8.08459 6.3095 7.92562 6.19229 7.80841C6.07508 7.6912 5.91611 7.62535 5.75035 7.62535Z" fill="black"/>
</svg>
