<svg width="14" height="14" viewBox="0 0 14 14" fill="none" xmlns="http://www.w3.org/2000/svg">
<path d="M13.875 0.75V4.5C13.875 4.66576 13.8092 4.82473 13.6919 4.94194C13.5747 5.05915 13.4158 5.125 13.25 5.125C13.0842 5.125 12.9253 5.05915 12.8081 4.94194C12.6908 4.82473 12.625 4.66576 12.625 4.5V2.25859L8.69219 6.19219C8.57491 6.30946 8.41585 6.37535 8.25 6.37535C8.08415 6.37535 7.92509 6.30946 7.80781 6.19219C7.69054 6.07491 7.62465 5.91585 7.62465 5.75C7.62465 5.58415 7.69054 5.42509 7.80781 5.30781L11.7414 1.375H9.5C9.33424 1.375 9.17527 1.30915 9.05806 1.19194C8.94085 1.07473 8.875 0.91576 8.875 0.75C8.875 0.58424 8.94085 0.425269 9.05806 0.308058C9.17527 0.190848 9.33424 0.125 9.5 0.125H13.25C13.4158 0.125 13.5747 0.190848 13.6919 0.308058C13.8092 0.425269 13.875 0.58424 13.875 0.75ZM5.30781 7.80781L1.375 11.7414V9.5C1.375 9.33424 1.30915 9.17527 1.19194 9.05806C1.07473 8.94085 0.91576 8.875 0.75 8.875C0.58424 8.875 0.425269 8.94085 0.308058 9.05806C0.190848 9.17527 0.125 9.33424 0.125 9.5V13.25C0.125 13.4158 0.190848 13.5747 0.308058 13.6919C0.425269 13.8092 0.58424 13.875 0.75 13.875H4.5C4.66576 13.875 4.82473 13.8092 4.94194 13.6919C5.05915 13.5747 5.125 13.4158 5.125 13.25C5.125 13.0842 5.05915 12.9253 4.94194 12.8081C4.82473 12.6908 4.66576 12.625 4.5 12.625H2.25859L6.19219 8.69219C6.30946 8.57491 6.37535 8.41585 6.37535 8.25C6.37535 8.08415 6.30946 7.92509 6.19219 7.80781C6.07491 7.69054 5.91585 7.62465 5.75 7.62465C5.58415 7.62465 5.42509 7.69054 5.30781 7.80781Z" fill="black"/>
</svg>
