<svg width="17" height="18" viewBox="0 0 17 18" fill="none" xmlns="http://www.w3.org/2000/svg">
<path d="M13.3751 11.5C12.9072 11.5024 12.4459 11.6097 12.0251 11.8142C11.6043 12.0186 11.2348 12.3149 10.9438 12.6813L6.37505 9.82501C6.54156 9.28761 6.54156 8.7124 6.37505 8.17501L10.9438 5.31876C11.4075 5.89295 12.0595 6.28449 12.7843 6.42401C13.509 6.56353 14.2598 6.44203 14.9035 6.08102C15.5473 5.72002 16.0425 5.14281 16.3014 4.45166C16.5603 3.76051 16.5662 3.00002 16.3181 2.3049C16.0701 1.60979 15.5839 1.02492 14.9459 0.653899C14.3079 0.282881 13.5591 0.149662 12.8323 0.277841C12.1054 0.406019 11.4474 0.787323 10.9748 1.35421C10.5021 1.92109 10.2454 2.63696 10.2501 3.37501C10.253 3.65449 10.2951 3.93219 10.3751 4.20001L5.8063 7.05626C5.40296 6.54849 4.85164 6.17879 4.22877 5.99838C3.60591 5.81797 2.94234 5.8358 2.33006 6.04939C1.71778 6.26298 1.18711 6.66176 0.811608 7.19045C0.436107 7.71913 0.234375 8.35154 0.234375 9.00001C0.234375 9.64847 0.436107 10.2809 0.811608 10.8096C1.18711 11.3383 1.71778 11.737 2.33006 11.9506C2.94234 12.1642 3.60591 12.182 4.22877 12.0016C4.85164 11.8212 5.40296 11.4515 5.8063 10.9438L10.3751 13.8C10.2951 14.0678 10.253 14.3455 10.2501 14.625C10.2501 15.2431 10.4333 15.8473 10.7767 16.3612C11.1201 16.8751 11.6081 17.2756 12.1792 17.5121C12.7502 17.7487 13.3785 17.8105 13.9847 17.69C14.5909 17.5694 15.1477 17.2718 15.5848 16.8347C16.0218 16.3977 16.3194 15.8409 16.44 15.2347C16.5606 14.6285 16.4987 14.0001 16.2622 13.4291C16.0257 12.8581 15.6251 12.37 15.1112 12.0267C14.5973 11.6833 13.9931 11.5 13.3751 11.5ZM13.3751 1.50001C13.7459 1.50001 14.1084 1.60997 14.4167 1.816C14.7251 2.02203 14.9654 2.31486 15.1073 2.65747C15.2492 3.00009 15.2864 3.37709 15.214 3.7408C15.1417 4.10451 14.9631 4.43861 14.7009 4.70083C14.4387 4.96305 14.1046 5.14163 13.7408 5.21398C13.3771 5.28633 13.0001 5.24919 12.6575 5.10728C12.3149 4.96537 12.0221 4.72504 11.816 4.4167C11.61 4.10836 11.5001 3.74585 11.5001 3.37501C11.5001 2.87772 11.6976 2.40081 12.0492 2.04918C12.4009 1.69755 12.8778 1.50001 13.3751 1.50001ZM3.37505 10.875C3.00421 10.875 2.6417 10.765 2.33336 10.559C2.02502 10.353 1.78469 10.0601 1.64278 9.71754C1.50087 9.37493 1.46373 8.99793 1.53608 8.63421C1.60843 8.2705 1.78701 7.9364 2.04923 7.67418C2.31145 7.41196 2.64555 7.23338 3.00926 7.16103C3.37297 7.08869 3.74997 7.12582 4.09259 7.26773C4.4352 7.40965 4.72803 7.64997 4.93406 7.95831C5.14009 8.26665 5.25005 8.62917 5.25005 9.00001C5.25005 9.49729 5.05251 9.9742 4.70088 10.3258C4.34925 10.6775 3.87233 10.875 3.37505 10.875ZM13.3751 16.5C13.0042 16.5 12.6417 16.39 12.3334 16.184C12.025 15.978 11.7847 15.6852 11.6428 15.3425C11.5009 14.9999 11.4637 14.6229 11.5361 14.2592C11.6084 13.8955 11.787 13.5614 12.0492 13.2992C12.3115 13.037 12.6455 12.8584 13.0093 12.786C13.373 12.7137 13.75 12.7508 14.0926 12.8927C14.4352 13.0346 14.728 13.275 14.9341 13.5833C15.1401 13.8917 15.2501 14.2542 15.2501 14.625C15.2501 15.1223 15.0525 15.5992 14.7009 15.9508C14.3492 16.3025 13.8723 16.5 13.3751 16.5Z" fill="black"/>
</svg>
