<svg width="8" height="14" viewBox="0 0 8 14" fill="none" xmlns="http://www.w3.org/2000/svg">
<path d="M4 13.4173C2.96944 13.4173 2.12847 13.2382 1.47708 12.8799C0.825694 12.5217 0.5 12.0591 0.5 11.4923C0.5 11.118 0.640972 10.7918 0.922917 10.5138C1.20486 10.2357 1.59375 10.0165 2.08958 9.85607L2.425 11.0752C2.25972 11.1287 2.10903 11.1955 1.97292 11.2758C1.83681 11.356 1.74444 11.4282 1.69583 11.4923C1.82222 11.6634 2.11389 11.8132 2.57083 11.9415C3.02778 12.0698 3.50417 12.134 4 12.134C4.49583 12.134 4.97465 12.0698 5.43646 11.9415C5.89826 11.8132 6.19236 11.6634 6.31875 11.4923C6.27014 11.4282 6.17778 11.356 6.04167 11.2758C5.90556 11.1955 5.75486 11.1287 5.58958 11.0752L5.925 9.85607C6.42083 10.0165 6.80729 10.2357 7.08437 10.5138C7.36146 10.7918 7.5 11.118 7.5 11.4923C7.5 12.0591 7.1743 12.5217 6.52292 12.8799C5.87153 13.2382 5.03056 13.4173 4 13.4173ZM4 9.13419C4.175 8.78128 4.35972 8.45777 4.55417 8.16367C4.74861 7.86958 4.93819 7.58885 5.12292 7.32148C5.48264 6.80815 5.76944 6.34562 5.98333 5.93388C6.19722 5.52214 6.30417 5.01148 6.30417 4.4019C6.30417 3.69607 6.08056 3.09718 5.63333 2.60523C5.18611 2.11329 4.64167 1.86732 4 1.86732C3.35833 1.86732 2.81389 2.11329 2.36667 2.60523C1.91944 3.09718 1.69583 3.69607 1.69583 4.4019C1.69583 5.01148 1.80278 5.52214 2.01667 5.93388C2.23056 6.34562 2.51736 6.80815 2.87708 7.32148C3.06181 7.58885 3.25139 7.86958 3.44583 8.16367C3.64028 8.45777 3.825 8.78128 4 9.13419ZM4 11.4923C3.89306 11.4923 3.79583 11.4576 3.70833 11.388C3.62083 11.3185 3.55764 11.225 3.51875 11.1073C3.29514 10.348 3.01319 9.71169 2.67292 9.19836C2.33264 8.68503 2.00208 8.19308 1.68125 7.72253C1.37014 7.25197 1.10035 6.76537 0.871875 6.26273C0.643403 5.7601 0.529167 5.13982 0.529167 4.4019C0.529167 3.33246 0.864583 2.42878 1.53542 1.69086C2.20625 0.952943 3.02778 0.583984 4 0.583984C4.97222 0.583984 5.79375 0.952943 6.46458 1.69086C7.13542 2.42878 7.47083 3.33246 7.47083 4.4019C7.47083 5.13982 7.35903 5.7601 7.13542 6.26273C6.91181 6.76537 6.63958 7.25197 6.31875 7.72253C6.00764 8.19308 5.67951 8.68503 5.33437 9.19836C4.98924 9.71169 4.70486 10.348 4.48125 11.1073C4.44236 11.225 4.37917 11.3185 4.29167 11.388C4.20417 11.4576 4.10694 11.4923 4 11.4923ZM4 5.76544C4.34028 5.76544 4.63194 5.63176 4.875 5.3644C5.11806 5.09704 5.23958 4.77621 5.23958 4.4019C5.23958 4.0276 5.11806 3.70676 4.875 3.4394C4.63194 3.17204 4.34028 3.03836 4 3.03836C3.65972 3.03836 3.36806 3.17204 3.125 3.4394C2.88194 3.70676 2.76042 4.0276 2.76042 4.4019C2.76042 4.77621 2.88194 5.09704 3.125 5.3644C3.36806 5.63176 3.65972 5.76544 4 5.76544Z" fill="black" fill-opacity="0.5"/>
</svg>
